<?xml version="1.0" encoding="utf-8"?>
<!-- Generator: Adobe Illustrator 16.0.0, SVG Export Plug-In . SVG Version: 6.00 Build 0)  -->
<!DOCTYPE svg PUBLIC "-//W3C//DTD SVG 1.1//EN" "http://www.w3.org/Graphics/SVG/1.1/DTD/svg11.dtd">
<svg version="1.1" id="PlayStation_Store" xmlns="http://www.w3.org/2000/svg" xmlns:xlink="http://www.w3.org/1999/xlink" x="0px"
	 y="0px" width="1000px" height="290.188px" viewBox="-199.999 -24.094 1000 290.188"
	 enable-background="new -199.999 -24.094 1000 290.188" xml:space="preserve">
<path d="M126.653,19.897c14.876,0,24.485,12.7,24.485,32.336c0,10.121-2.741,18.561-7.929,24.399
	c-4.154,4.841-10.179,7.676-16.556,7.792h-17.509c-0.175,0-0.318-0.143-0.318-0.319c0-0.001,0-0.002,0-0.004V73.477
	c0.004-0.174,0.145-0.313,0.318-0.314h12.174c7.395,0,11.467-7.458,11.467-21.009c0-13.55-4.072-21.012-11.457-21.012l-20.261,0.036
	c-0.071,0.016-0.121,0.081-0.119,0.155l-0.015,91.419c-0.002,0.166-0.136,0.303-0.302,0.309H82.904
	c-0.173-0.002-0.313-0.138-0.324-0.309V20.189c0.004-0.176,0.147-0.316,0.324-0.315L126.653,19.897z M180.084,19.874
	c0.175,0.003,0.315,0.146,0.315,0.319l0,0v102.544c-0.004,0.171-0.143,0.31-0.315,0.313h-17.723
	c-0.169-0.006-0.305-0.145-0.307-0.313V20.193c-0.002-0.172,0.134-0.314,0.307-0.319H180.084z M257.469,44.826v0.489v77.423
	c-0.006,0.171-0.143,0.308-0.311,0.316H239.45c-0.175-0.003-0.315-0.141-0.324-0.316l0.021-66.818
	c0.006-0.073-0.045-0.139-0.119-0.148h-13.513c-3.595,0-7.63,0.602-10.183,5.171c-2.324,4.144-3.394,11.38-3.383,22.754v17.093
	c0,9.739,3.804,10.953,6.66,11.01l12.309-0.022c0.173-0.002,0.315,0.135,0.317,0.308c0,0.006,0,0.015,0,0.021v10.627
	c-0.002,0.173-0.143,0.312-0.317,0.313h-17.215c-11.653,0-20.107-9.891-20.107-23.517V83.694c0-18.293,3.621-39.178,31.912-39.178
	h31.637c0.169-0.01,0.316,0.12,0.324,0.29C257.469,44.812,257.469,44.818,257.469,44.826z M385.058,62.821
	c7.576,0.575,13.061,3.099,16.807,7.748c4.343,5.382,6.543,12.913,6.543,22.345c0,26.239-16.124,30.146-25.734,30.146h-31.175
	c-0.169-0.009-0.303-0.145-0.31-0.313v-10.625c0.003-0.174,0.137-0.318,0.31-0.33h25.092c12.084,0,13.459-10.269,13.459-15.938
	v-2.554c0-9.031-4.095-14.953-10.705-15.457l-8.718-0.665c-13.975-1.058-23.369-12.075-23.369-27.401v-0.811
	c0-19.368,11.768-29.083,28.257-29.083h26.153h0.523c0.171,0.007,0.303,0.149,0.296,0.319v10.666
	c0.007,0.17-0.125,0.312-0.296,0.319h-24.165c-7.477,0-13.139,3.393-13.139,15.979c0,10.784,4.884,14.419,11.427,14.995
	L385.058,62.821z M530.362,44.826v77.917c-0.008,0.169-0.145,0.305-0.313,0.313h-17.729c-0.168-0.009-0.303-0.145-0.307-0.313
	l0.011-66.825c0.002-0.072-0.05-0.136-0.121-0.148h-13.519c-3.595,0-7.615,0.602-10.164,5.17c-2.328,4.144-3.4,11.38-3.392,22.754
	v17.093c0,9.739,3.785,10.952,6.662,11.01l12.304-0.023c0.178-0.003,0.324,0.137,0.326,0.315c0.003,0.005,0.003,0.011,0,0.015
	v10.625c-0.006,0.177-0.151,0.315-0.326,0.315h-17.226c-11.637,0-20.093-9.891-20.093-23.517l-0.02-15.836
	c0-18.294,3.643-39.178,31.938-39.178h31.64c0.175-0.001,0.315,0.138,0.317,0.312l0,0H530.362z M459.061,44.52
	c0.171-0.002,0.312,0.134,0.313,0.306c0,0,0,0.001,0,0.002v10.593c-0.005,0.174-0.141,0.314-0.313,0.323c0,0-13.318,0.021-19.185,0
	c-0.061-0.002-0.112,0.039-0.121,0.097v45.771c0,10.029,4.669,10.131,6.66,10.162h7.81c0.178,0.01,0.318,0.152,0.324,0.33v10.625
	c-0.013,0.17-0.153,0.305-0.324,0.311h-12.706c-11.648,0-20.113-9.875-20.113-23.497V31.489c0.004-0.175,0.146-0.314,0.321-0.313
	h17.734c0.173,0.004,0.31,0.143,0.313,0.313l-0.021,12.839l0.021,0.072c0,0.063,0.045,0.116,0.108,0.125h19.178V44.52z
	 M582.878,44.52c0.171-0.003,0.312,0.131,0.315,0.3c0,0.002,0,0.005,0,0.008v10.593c-0.002,0.174-0.14,0.317-0.315,0.323
	c0,0-13.326,0.021-19.199,0c-0.056-0.002-0.104,0.041-0.105,0.097l0,0v45.771c0,10.029,4.662,10.131,6.655,10.162h7.81
	c0.178,0.005,0.318,0.152,0.313,0.33v10.625c-0.002,0.173-0.143,0.309-0.313,0.311h-12.712c-11.645,0-20.118-9.875-20.118-23.497
	V31.489c0.011-0.179,0.159-0.317,0.339-0.313h17.728c0.167,0.006,0.301,0.146,0.299,0.313v12.907
	c0.004,0.064,0.054,0.116,0.116,0.125H582.878L582.878,44.52z M612.203,44.52c0.168,0.001,0.305,0.139,0.305,0.308l0,0v77.914
	c-0.005,0.169-0.137,0.303-0.305,0.312h-17.732c-0.17-0.007-0.307-0.141-0.317-0.312V44.828c0.004-0.172,0.147-0.308,0.317-0.308
	H612.203z M612.203,19.877c0.171,0.006,0.307,0.147,0.305,0.318v14.871c0.002,0.171-0.134,0.313-0.305,0.319h-17.732
	c-0.175-0.005-0.313-0.145-0.317-0.319V20.193c0.004-0.174,0.143-0.313,0.317-0.319h17.732V19.877z M734.786,44.52
	c28.283,0,31.915,20.889,31.915,39.178v39.039c-0.005,0.171-0.146,0.308-0.318,0.31h-17.708c-0.177,0.002-0.324-0.134-0.339-0.31
	c0,0,0.043-40.632,0.032-41.095c0-10.563-1.092-17.265-3.4-21.095c-2.556-4.206-6.587-4.785-10.184-4.785h-13.501
	c-0.069,0-0.128,0.05-0.139,0.117l0.041,66.85c-0.007,0.173-0.149,0.309-0.324,0.309h-17.708c-0.171-0.004-0.312-0.141-0.322-0.309
	l0.016-77.917c-0.003-0.169,0.134-0.306,0.302-0.308c0.003,0,0.005,0,0.005,0h31.654L734.786,44.52z M668.942,106.642
	c2.559-4.148,3.744-11.411,3.744-22.836c0-13.591-1.678-21.281-5.39-24.955c-2.213-2.165-5.093-3.08-9.604-3.08
	c-4.514,0-7.401,0.915-9.592,3.08c-3.743,3.673-5.391,11.344-5.391,24.866v0.088c0,11.425,1.181,18.68,3.723,22.836
	c2.831,4.591,7.282,5.217,11.26,5.217C661.667,111.859,666.151,111.229,668.942,106.642z M657.693,44.516
	c29.614,0,33.403,21.001,33.403,39.29c0,18.288-3.789,39.304-33.412,39.304c-29.621,0-33.403-21-33.403-39.304
	c0-18.303,3.807-39.294,33.412-39.294V44.516z M267.452,44.516h18.603c0.19,0.006,0.359,0.123,0.433,0.298l17.23,50.739
	c0.064,0.166,0.153,0.174,0.22,0l19.569-50.739c0.082-0.171,0.253-0.283,0.443-0.292h16.809c0.108-0.025,0.217,0.044,0.242,0.152
	c0.009,0.048,0.002,0.098-0.02,0.14l-46.205,116.094c-0.082,0.173-0.253,0.289-0.443,0.298H278.93
	c-0.11,0.013-0.21-0.069-0.221-0.182c-0.002-0.039,0.007-0.08,0.026-0.116l14.758-38.294c0.069-0.192,0.078-0.399,0.021-0.599
	l-26.283-77.2c-0.043-0.114,0.015-0.242,0.129-0.284c0.028-0.011,0.057-0.015,0.087-0.014L267.452,44.516z M138.252,164.12
	c-7.207-2.866-14.891-4.341-22.647-4.343c-9.798,0-20.769,3.764-20.769,15.765c0,9.245,5.482,14.31,21.493,20.526
	c19.466,7.527,29.569,15.326,29.569,31.365c0,20.389-17.594,28.486-34.621,28.486c-10.467-0.078-20.813-2.242-30.432-6.368
	l3.175-10.834c8.573,4.232,17.983,6.5,27.543,6.641c12.397,0,21.785-5.495,21.785-17.045c0-10.553-9.092-15.903-24.662-22.267
	c-17.6-7.084-26.4-15.901-26.4-29.632c0-19.087,17.883-27.18,33.466-27.18c8.701-0.117,17.349,1.349,25.524,4.331L138.252,164.12z
	 M149.494,177.844h13.56v-19.223h12.256v19.223h17.593v9.695h-17.596v45.675c0,10.402,1.012,12.287,9.663,12.287
	c2.702-0.021,5.4-0.217,8.078-0.575v9.252c-3.817,0.609-7.674,0.949-11.539,1.012c-15.866,0-18.456-7.665-18.456-21.249v-46.396
	h-13.56v-9.694V177.844z M232.561,185.797c-15.866,0-23.075,12.436-23.075,30.06c0,17.794,7.497,30.366,23.075,30.366
	c15.873,0,23.078-12.572,23.078-30.366c0-17.617-7.205-30.051-23.078-30.051V185.797z M232.561,255.911
	c-21.774,0-35.338-15.181-35.338-40.063s13.564-39.752,35.338-39.752s35.334,14.901,35.334,39.752
	c0,24.85-13.553,40.072-35.334,40.072V255.911z M314.627,186.229c-2.101-0.311-4.222-0.456-6.344-0.432
	c-10.102,0-18.18,5.932-18.18,23.713v44.668h-12.252v-76.325h11.811v10.266h0.153c3.764-8.098,10.092-12.008,19.898-12.008
	c1.833-0.028,3.666,0.071,5.486,0.296L314.627,186.229z M326.445,209.65h42.976v-0.582c0-14.597-8.205-23.273-20.334-23.273
	c-13.701,0.006-21.349,9.842-22.642,23.861V209.65z M326.445,219.341c0.86,16.329,10.815,26.886,26.969,26.886
	c7.006,0.05,13.958-1.228,20.488-3.761l2.015,9.395c-7.264,2.806-15,4.181-22.784,4.047c-25.245,0-38.514-17.06-38.514-39.753
	c0-23.129,13.124-40.053,34.329-40.053c21.342,0,31.579,14.742,31.579,37.304v5.931h-54.082V219.341z M778.953,110.784h-4.549
	v-1.569h10.862v1.569h-4.524v12.274h-1.801v-12.274H778.953z M792.613,123.056l-3.785-11.248v11.248h-1.805v-13.841h2.514
	l3.983,11.792l3.984-11.792H800v13.841h-1.794v-11.248l-3.778,11.248H792.613L792.613,123.056z M-28.868,173.998
	c-2.933,3.645-10.041,6.273-10.041,6.273l-52.858,18.973v-13.999l38.903-13.841c4.403-1.621,5.076-3.843,1.513-5.008
	c-4.814-1.113-9.844-0.853-14.518,0.752l-25.898,9.129v-14.555l1.487-0.495c5.862-1.894,11.906-3.162,18.032-3.791
	c11.344-1.172,22.808,0.186,33.563,3.969C-27.257,165.027-25.98,170.315-28.868,173.998z M-53.255,206.888h-1.269v-8.061
	l-2.667,8.061h-1.286l-2.669-8.061v8.061h-1.282v-9.92h1.781l2.81,8.448l2.818-8.448h1.771v9.92H-53.255z M-63.672,198.092h-3.182
	v8.796h-1.282v-8.796h-3.21v-1.124h7.674V198.092z M-96.373,111.257v89.61l-24.223-7.678V86.324
	c11.291,2.387,22.429,5.438,33.36,9.134c20.473,7.036,27.431,15.793,27.431,35.451c0,19.226-11.867,26.53-26.942,19.234v-35.787
	c0-4.172-0.774-8.068-4.721-9.164C-94.477,104.231-96.373,107.031-96.373,111.257L-96.373,111.257z M-98.535-13.853
	c1.961-0.193,3.938,0.103,5.757,0.861c-10.927,14.874-14.07,41.113-14.963,55.78c-4.499,0.01-8.822,0.022-12.974,0.042
	C-119.1,7.884-111.226-12.56-98.535-13.853L-98.535-13.853z M-125.279,164.98l-24.947,8.932c-4.427,1.569-5.078,3.805-1.517,4.968
	c4.796,1.151,9.822,0.891,14.472-0.751l11.993-4.322v12.561c-0.776,0.139-1.632,0.269-2.418,0.4
	c-12.483,2.042-25.276,1.014-37.273-2.996c-11.718-3.265-13.672-10.151-8.327-14.122c4.146-2.695,8.625-4.84,13.324-6.377
	l34.694-12.36V164.98L-125.279,164.98z M-85.781-7.951c10.419,10.793,17.485,33.078,20.514,50.735c-8.826,0-18.441,0-28.843,0
	h-4.945C-98.051,26.615-94.592,3.679-85.781-7.951z M-72.982-15.331c4.505,0.193,8.698,2.351,11.476,5.903
	c11.052,12.044,16.768,37.782,18.897,52.239l-13.826-0.013c-3.111-19.239-10.86-43.779-22.82-56.538
	c1.935-1.024,4.085-1.566,6.273-1.583V-15.331z M24.481,48.223c-0.119-1.145-1.115-1.995-2.263-1.932l-23.143-3.32
	c-0.216-0.06-0.441-0.091-0.666-0.093c-4.647-0.013-15.635-0.04-32.2-0.059C-35.755,27.767-41.474,2.66-52.276-11.92
	c-6.007-8.11-12.993-12.199-20.753-12.174c-4.825,0.003-9.516,1.586-13.354,4.509c-3.906-2.382-8.48-3.43-13.033-2.986
	c-21.795,2.214-28.611,34.25-30.025,65.444c-30.846,0.182-50.744,0.56-57.38,0.7c-1.323-0.034-2.451,0.954-2.592,2.271
	c-0.521,8.759-2.548,43.083-5.413,95.845c-3.026,55.796-4.743,86.234-5.173,94.297c-0.011,1.206,0.899,2.225,2.101,2.346
	l92.124,13.944l91.059,13.787c0.724,0.107,1.463-0.059,2.073-0.463v0.018l45-28.737c1.163-0.752,1.846-2.062,1.796-3.447
	L24.481,48.223z"/>
</svg>
